<?xml version="1.0" encoding="UTF-8"?>
<svg xmlns="http://www.w3.org/2000/svg" xmlns:xlink="http://www.w3.org/1999/xlink" width="1000px" height="992px" viewBox="0 0 562 558" version="1.1">
<g id="surface1">
<path style=" stroke:none;fill-rule:nonzero;fill:rgb(0%,0%,0%);fill-opacity:1;" d="M 289.3125 22.875 C 288.640625 24.75 289.613281 25.050781 290.585938 23.324219 C 291.109375 22.199219 291.109375 21.75 290.585938 21.75 C 290.136719 21.75 289.613281 22.273438 289.3125 22.875 Z M 289.3125 22.875 "/>
<path style=" stroke:none;fill-rule:nonzero;fill:rgb(0%,0%,0%);fill-opacity:1;" d="M 281.449219 26.699219 C 280.101562 28.050781 278.230469 28.875 275.53125 29.324219 C 273.359375 29.699219 271.339844 30.375 271.039062 30.898438 C 270.515625 31.648438 270.214844 31.648438 269.464844 30.898438 C 269.015625 30.449219 267.96875 30 267.21875 30 C 264.523438 30 259.878906 28.125 260.253906 27.226562 C 260.703125 25.949219 257.632812 26.023438 255.984375 27.300781 C 255.011719 27.976562 254.9375 28.5 255.535156 29.101562 C 256.136719 29.699219 255.6875 29.851562 253.664062 29.476562 C 251.417969 29.175781 250.894531 29.25 250.894531 30.300781 C 250.894531 30.976562 250.59375 31.5 250.144531 31.5 C 249.769531 31.5 249.394531 31.199219 249.394531 30.75 C 249.394531 29.851562 245.050781 30.601562 242.878906 31.949219 C 241.90625 32.550781 241.15625 32.699219 241.15625 32.25 C 241.15625 31.875 240.855469 31.5 240.40625 31.5 C 240.035156 31.5 239.882812 32.023438 240.109375 32.625 C 240.40625 33.226562 240.183594 33.75 239.734375 33.75 C 239.285156 33.75 238.910156 33.226562 238.910156 32.625 C 238.910156 32.023438 238.835938 31.5 238.761719 31.425781 C 238.609375 31.425781 236.214844 31.199219 233.441406 30.976562 C 228.351562 30.601562 228.273438 30.675781 228.800781 32.398438 C 229.25 33.824219 229.171875 33.976562 228.351562 33.148438 C 226.703125 31.648438 224.304688 32.101562 222.058594 34.5 C 220.859375 35.699219 219.214844 36.75 218.390625 36.75 C 217.265625 36.75 217.117188 36.976562 217.789062 37.351562 C 218.464844 37.800781 217.714844 38.324219 215.542969 39 C 213.746094 39.601562 211.949219 39.976562 211.5 39.898438 C 210.976562 39.824219 209.777344 40.648438 208.804688 41.851562 C 207.828125 42.976562 206.480469 44.175781 205.730469 44.476562 C 204.984375 44.773438 204.609375 45.375 204.832031 45.824219 C 205.132812 46.199219 204.757812 47.101562 204.007812 47.625 C 203.1875 48.226562 202.886719 48.75 203.261719 48.75 C 203.636719 48.75 202.585938 50.101562 200.9375 51.675781 C 198.46875 54.148438 197.570312 54.523438 195.472656 54.300781 C 194.046875 54.148438 192.699219 54.375 192.402344 54.898438 C 191.875 55.726562 181.542969 55.949219 178.921875 55.125 C 178.171875 54.898438 177.347656 55.050781 177.121094 55.574219 C 176.671875 56.175781 176.375 56.101562 175.925781 55.425781 C 175.398438 54.523438 175.101562 54.523438 174.652344 55.351562 C 174.277344 55.875 173.527344 56.25 172.929688 56.101562 C 172.328125 55.949219 171.804688 56.625 171.65625 57.601562 C 171.355469 59.625 168.585938 61.351562 167.761719 60 C 167.3125 59.324219 166.9375 59.476562 166.339844 60.601562 C 165.890625 61.425781 164.839844 62.324219 164.089844 62.625 C 163.269531 62.851562 162.21875 64.199219 161.769531 65.550781 C 161.320312 66.976562 160.273438 68.699219 159.449219 69.449219 C 158.625 70.199219 158.175781 71.25 158.398438 71.851562 C 158.625 72.523438 158.101562 73.726562 157.203125 74.699219 C 156.003906 76.050781 155.105469 76.351562 153.382812 75.976562 C 151.957031 75.675781 150.835938 75.976562 149.9375 76.726562 C 149.261719 77.324219 147.691406 78.148438 146.566406 78.375 C 145.367188 78.675781 144.019531 79.800781 143.347656 81.074219 C 142.746094 82.351562 141.921875 83.101562 141.546875 82.875 C 141.097656 82.574219 140.800781 82.726562 140.800781 83.101562 C 140.800781 83.476562 140.050781 84.074219 139.152344 84.375 C 137.652344 84.824219 137.652344 84.976562 138.777344 85.273438 C 140.351562 85.648438 140.5 87 138.925781 87 C 138.328125 87 137.503906 88.273438 136.980469 90 C 136.15625 92.699219 134.808594 94.125 134.808594 92.25 C 134.808594 90.375 133.460938 91.800781 133.011719 94.125 C 132.710938 95.550781 132.035156 96.75 131.511719 96.75 C 130.164062 96.75 126.71875 100.125 126.792969 101.324219 C 126.871094 103.050781 124.996094 107.25 124.097656 107.25 C 123.648438 107.25 123.949219 107.773438 124.773438 108.375 C 126.121094 109.425781 126.121094 109.574219 124.847656 110.324219 C 124.023438 110.773438 123.648438 111.601562 123.949219 112.425781 C 124.398438 113.925781 122.601562 115.800781 120.054688 116.550781 C 118.105469 117.148438 117.730469 118.5 119.453125 118.5 C 121.027344 118.5 120.878906 119.699219 119.082031 121.5 C 118.257812 122.324219 117.582031 123.675781 117.582031 124.5 C 117.582031 125.25 116.910156 126.300781 116.085938 126.75 C 114.210938 127.726562 112.191406 131.550781 112.789062 133.050781 C 113.238281 134.25 111.515625 136.5 110.242188 136.5 C 109.269531 136.5 108.59375 138.375 108.59375 140.925781 C 108.59375 142.050781 108.296875 143.25 107.847656 143.699219 C 107.398438 144.148438 107.398438 145.273438 107.773438 146.625 C 108.144531 147.898438 108.519531 148.351562 108.519531 147.75 C 108.59375 146.773438 108.671875 146.773438 109.34375 147.75 C 109.792969 148.351562 109.945312 150.824219 109.71875 153.226562 C 109.34375 156.523438 109.570312 157.800781 110.394531 158.699219 C 111.214844 159.523438 111.589844 161.476562 111.667969 165.226562 C 111.742188 168.226562 111.890625 171.75 112.039062 173.023438 C 112.191406 174.375 111.964844 175.5 111.589844 175.5 C 111.140625 175.5 110.84375 175.949219 110.84375 176.476562 C 110.84375 177 110.167969 177.824219 109.269531 178.351562 C 108.144531 179.101562 107.921875 179.550781 108.519531 180.300781 C 108.96875 180.824219 109.121094 181.425781 108.894531 181.726562 C 108.671875 181.949219 109.34375 182.699219 110.394531 183.375 C 111.589844 184.199219 112.265625 185.324219 112.265625 186.601562 C 112.265625 190.875 112.789062 195.449219 113.3125 196.273438 C 113.6875 196.800781 114.511719 197.25 115.261719 197.25 C 116.832031 197.25 122.824219 201.449219 122.824219 202.5 C 122.824219 202.949219 122.300781 203.25 121.703125 203.25 C 121.101562 203.25 120.578125 203.699219 120.578125 204.300781 C 120.578125 204.898438 120.429688 205.875 120.203125 206.476562 C 119.828125 207.226562 120.277344 207.449219 122.152344 207.148438 L 124.546875 206.773438 L 124.023438 209.550781 C 123.722656 211.125 123.273438 212.851562 123.050781 213.449219 C 122.824219 214.125 123.125 214.5 124.097656 214.5 C 125.746094 214.5 129.566406 217.875 129.566406 219.375 C 129.566406 221.25 134.285156 225 137.28125 225.523438 C 138.851562 225.75 140.574219 226.351562 141.023438 226.800781 C 141.546875 227.324219 142.523438 227.925781 143.269531 228.226562 C 143.945312 228.449219 144.542969 229.273438 144.542969 230.023438 C 144.542969 231.074219 144.394531 231.148438 143.871094 230.398438 C 143.347656 229.574219 143.195312 229.574219 142.820312 230.476562 C 142.597656 231 142.746094 231.976562 143.121094 232.574219 C 143.496094 233.175781 143.796875 234.300781 143.796875 235.125 C 143.796875 235.875 144.617188 237.226562 145.667969 238.125 C 147.164062 239.324219 147.691406 240.675781 148.289062 245.101562 C 148.664062 248.101562 149.710938 252.523438 150.535156 255 C 152.78125 261.75 152.855469 261.675781 146.566406 261.523438 C 140.351562 261.449219 137.28125 262.949219 135.03125 267.226562 C 133.835938 269.550781 132.410156 276.523438 132.410156 280.5 C 132.261719 288.148438 133.386719 303.148438 134.285156 305.625 C 134.882812 307.273438 135.558594 310.648438 135.855469 313.125 C 137.203125 325.050781 140.875 335.550781 144.917969 339.375 C 145.816406 340.199219 146.792969 341.851562 147.089844 343.050781 C 147.765625 345.824219 152.257812 350.175781 155.105469 350.773438 C 156.300781 351 157.277344 351.523438 157.277344 351.898438 C 157.277344 352.351562 158.25 352.425781 159.746094 352.125 C 161.019531 351.824219 164.167969 351.523438 166.636719 351.449219 C 170.832031 351.375 171.132812 351.523438 171.355469 353.175781 C 171.507812 354.148438 171.28125 355.273438 170.832031 355.726562 C 169.484375 357.074219 169.859375 357.75 171.878906 357.75 C 172.929688 357.75 173.753906 358.050781 173.753906 358.425781 C 173.753906 358.726562 174.203125 361.875 174.800781 365.324219 C 175.398438 368.773438 176.074219 373.351562 176.300781 375.523438 C 176.597656 377.625 177.347656 380.699219 178.023438 382.273438 C 178.695312 383.851562 179.371094 385.425781 179.445312 385.875 C 180.492188 389.476562 181.691406 392.25 182.140625 392.25 C 182.515625 392.25 182.738281 392.625 182.738281 393.148438 C 182.738281 393.601562 184.6875 396.898438 187.082031 400.425781 L 191.351562 406.875 L 191.277344 416.699219 L 191.277344 426.523438 L 187.757812 431.476562 C 185.808594 434.25 182.816406 439.050781 181.09375 442.273438 C 179.445312 445.5 177.796875 448.5 177.421875 448.875 C 177.121094 449.324219 176.671875 450.523438 176.523438 451.5 C 176.300781 452.550781 175.625 454.574219 175.027344 456 C 173.828125 458.625 172.855469 461.324219 172.703125 462 C 172.628906 462.226562 172.40625 462.675781 172.105469 463.125 C 171.878906 463.5 171.429688 465.449219 171.132812 467.476562 C 170.832031 469.425781 170.308594 471.226562 169.933594 471.449219 C 169.558594 471.675781 169.257812 472.800781 169.257812 474 C 169.257812 475.199219 168.882812 477.074219 168.511719 478.125 C 168.0625 479.25 167.386719 482.550781 166.9375 485.476562 C 165.890625 492 164.691406 494.625 161.09375 497.851562 C 158.773438 499.949219 144.09375 507.75 142.445312 507.75 C 142.074219 507.75 138.628906 508.800781 134.734375 510 C 130.839844 511.273438 126.046875 512.773438 123.949219 513.375 C 111.292969 517.199219 87.324219 525.523438 77.515625 529.5 C 70.773438 532.273438 61.335938 535.351562 58.117188 535.949219 C 56.917969 536.175781 52.199219 537.523438 47.632812 538.949219 C 36.472656 542.476562 27.785156 544.800781 20.59375 546.375 C 17.300781 547.050781 13.105469 548.101562 11.234375 548.699219 C 9.363281 549.226562 6.066406 549.898438 3.894531 550.199219 L 0 550.726562 L 0 558.074219 L 25.6875 557.773438 C 49.730469 557.476562 55.496094 557.101562 57.292969 555.75 C 57.742188 555.449219 61.636719 553.949219 66.132812 552.449219 C 75.941406 549.074219 83.65625 545.476562 88.671875 541.648438 L 92.492188 538.726562 L 97.734375 539.324219 C 104.625 540.148438 108.445312 541.050781 111.214844 542.476562 C 112.414062 543.148438 114.136719 543.523438 115.035156 543.300781 C 116.832031 542.851562 126.871094 547.125 130.613281 550.050781 C 131.886719 551.023438 134.058594 552.375 135.40625 553.050781 C 137.804688 554.324219 138.703125 556.800781 136.90625 557.476562 C 136.382812 557.699219 147.839844 557.925781 162.367188 557.925781 C 186.859375 558 188.804688 557.925781 189.332031 556.648438 C 190.003906 554.851562 190.003906 540.074219 189.253906 533.398438 L 188.65625 528 L 190.902344 528 C 192.175781 528 193.300781 527.550781 193.300781 527.023438 C 193.675781 523.574219 192.925781 511.648438 192.328125 510.375 C 191.578125 509.101562 191.652344 509.023438 192.625 509.851562 C 193.226562 510.375 194.347656 513.226562 195.097656 516.226562 C 195.769531 519.148438 196.894531 522.601562 197.492188 523.800781 C 198.394531 525.601562 198.542969 527.550781 198.167969 533.175781 C 197.941406 537.148438 197.492188 544.351562 197.195312 549.148438 L 196.746094 558 L 365.328125 558 L 365.03125 550.351562 C 364.804688 544.726562 364.355469 541.949219 363.234375 539.625 C 362.410156 537.976562 361.511719 534.976562 361.285156 533.101562 L 360.835938 529.648438 L 364.804688 526.574219 C 371.097656 521.773438 372.21875 520.574219 372.21875 518.625 C 372.21875 517.574219 372.519531 516.75 372.820312 516.75 C 373.195312 516.75 373.941406 515.550781 374.46875 514.125 C 375.964844 510.300781 376.640625 510 380.308594 511.574219 C 383.078125 512.773438 384.578125 514.5 382.78125 514.5 C 381.804688 514.5 378.4375 522.824219 376.714844 529.351562 C 375.589844 533.773438 375.214844 537.449219 375.214844 545.699219 C 375.214844 551.625 375.515625 556.574219 375.890625 556.800781 C 377.910156 558.074219 391.691406 544.425781 395.886719 537.074219 C 398.65625 532.125 400.605469 526.273438 401.128906 520.949219 C 401.578125 516.523438 401.429688 515.851562 397.460938 506.476562 C 393.414062 497.101562 390.042969 487.425781 389.070312 482.625 C 386.972656 472.800781 383.527344 465.375 378.585938 460.125 C 377.761719 459.226562 376.039062 457.273438 374.691406 455.773438 C 373.34375 454.273438 372.070312 453.375 371.84375 453.824219 C 371.546875 454.199219 371.097656 458.023438 370.722656 462.226562 C 370.046875 470.925781 368.699219 479.175781 367.800781 480.375 C 367.425781 480.75 366.601562 483 365.855469 485.25 C 362.785156 494.851562 357.089844 504.449219 348.554688 514.425781 C 343.609375 520.199219 337.992188 530.101562 331.402344 544.949219 C 328.558594 551.25 312.457031 554.101562 284.21875 553.273438 C 275.980469 552.976562 266.246094 552.300781 262.5 551.625 C 249.46875 549.449219 235.164062 545.023438 233.441406 542.699219 C 233.144531 542.25 232.617188 540.675781 232.167969 539.25 C 231.796875 537.824219 230.371094 534.898438 229.023438 532.875 C 227.675781 530.773438 226.253906 528.601562 225.804688 527.851562 C 225.429688 527.175781 223.183594 523.800781 220.859375 520.351562 C 218.539062 516.976562 216.441406 513.75 216.140625 513.226562 C 215.84375 512.699219 217.863281 511.351562 221.460938 509.550781 C 224.679688 508.050781 227.453125 506.550781 227.675781 506.25 C 227.902344 505.949219 228.875 505.273438 229.921875 504.75 C 230.972656 504.226562 232.992188 502.800781 234.566406 501.675781 C 236.0625 500.476562 238.234375 499.273438 239.433594 499.050781 C 241.304688 498.675781 242.054688 499.125 244.75 502.050781 C 246.472656 503.925781 247.898438 505.875 247.898438 506.476562 C 247.898438 507.675781 252.167969 511.5 253.589844 511.5 C 254.113281 511.5 257.183594 512.550781 260.253906 513.75 C 265.347656 515.773438 266.097656 515.925781 267.070312 514.875 C 267.742188 514.273438 268.867188 513.75 269.691406 513.75 C 270.441406 513.75 271.113281 513.300781 271.113281 512.699219 C 271.113281 512.101562 271.414062 511.5 271.789062 511.351562 C 272.085938 511.273438 272.613281 509.625 272.910156 507.75 C 273.359375 504.601562 273.210938 504.226562 270.363281 501.148438 C 268.71875 499.351562 267.371094 497.476562 267.371094 496.949219 C 267.371094 496.351562 266.546875 495.375 265.496094 494.699219 C 264.449219 494.023438 263.625 492.75 263.625 491.851562 C 263.625 491.023438 263.101562 489.898438 262.425781 489.449219 C 261.378906 488.699219 261.453125 488.324219 263.101562 486.75 C 264.75 485.175781 278.078125 477.976562 282.722656 476.175781 C 283.546875 475.875 286.691406 475.199219 289.613281 474.75 C 297.476562 473.476562 308.710938 470.625 308.113281 470.023438 C 307.8125 469.726562 308.113281 469.5 308.785156 469.5 C 309.460938 469.5 310.285156 469.050781 310.582031 468.523438 C 310.882812 468 313.429688 465.898438 316.273438 463.875 C 321.367188 460.199219 322.640625 458.476562 319.71875 459.226562 C 318.820312 459.449219 316.722656 459 315 458.25 C 312.230469 456.898438 304.667969 455.699219 293.582031 454.726562 C 290.4375 454.5 288.113281 454.800781 284.59375 456.074219 C 280.699219 457.351562 278.078125 457.726562 271.636719 457.726562 C 267.144531 457.726562 262.800781 457.351562 261.902344 456.898438 C 261.003906 456.449219 258.605469 455.851562 256.660156 455.625 C 253.738281 455.25 252.464844 454.574219 250.070312 452.101562 C 247.222656 449.175781 246.472656 446.625 248.195312 445.425781 C 249.019531 444.75 246.472656 441 245.199219 441 C 243.851562 441 239.882812 436.800781 238.386719 433.875 C 237.710938 432.601562 236.960938 431.476562 236.664062 431.25 C 235.765625 430.574219 231.421875 420.601562 231.421875 419.101562 C 231.421875 418.273438 230.222656 415.648438 228.800781 413.25 C 227.375 410.851562 226.179688 408.226562 226.179688 407.398438 C 226.179688 406.574219 225.730469 405.523438 225.128906 405.074219 C 224.53125 404.550781 223.632812 402.523438 223.183594 400.425781 C 222.65625 398.398438 221.984375 396.523438 221.609375 396.300781 C 221.234375 396.074219 220.933594 393.976562 220.933594 391.574219 C 220.933594 389.175781 220.410156 385.726562 219.8125 384 C 219.214844 382.273438 218.6875 379.726562 218.6875 378.300781 C 218.6875 376.351562 218.390625 375.824219 217.042969 375.601562 C 216.140625 375.449219 214.945312 374.625 214.496094 373.648438 C 213.671875 372 212.472656 370.425781 204.007812 359.625 C 201.6875 356.699219 199.589844 353.699219 199.214844 352.800781 C 198.917969 351.976562 197.34375 349.574219 195.847656 347.550781 C 194.347656 345.523438 192.101562 341.476562 190.753906 338.625 C 189.40625 335.699219 187.609375 332.324219 186.632812 331.125 C 185.734375 329.925781 185.0625 328.574219 185.285156 328.050781 C 185.4375 327.601562 184.835938 326.398438 183.863281 325.5 C 182.816406 324.523438 181.839844 322.5 181.617188 320.699219 C 181.316406 319.050781 180.566406 316.726562 180.042969 315.601562 C 179.445312 314.476562 178.996094 311.851562 178.996094 309.75 C 178.996094 307.425781 178.394531 304.800781 177.496094 303 C 176.671875 301.425781 175.175781 295.351562 174.050781 289.574219 L 172.179688 279 L 174.875 273.824219 C 176.375 270.976562 178.769531 267.300781 180.195312 265.648438 C 181.617188 263.925781 183.265625 261.375 183.863281 259.949219 C 184.460938 258.523438 185.4375 257.023438 185.960938 256.726562 C 187.457031 255.898438 188.882812 252.898438 188.28125 251.925781 C 187.683594 250.949219 192.777344 245.625 195.847656 243.898438 C 197.492188 243 200.789062 242.625 208.277344 242.398438 C 217.640625 242.101562 219.0625 242.25 227.527344 244.351562 C 232.542969 245.625 237.410156 247.199219 238.3125 247.949219 C 239.582031 248.851562 239.660156 249.074219 238.683594 248.699219 C 235.539062 247.648438 222.507812 247.351562 216.140625 248.175781 C 209.328125 249.074219 205.359375 250.648438 198.917969 255 C 195.398438 257.398438 195.320312 257.550781 195.097656 263.851562 C 195.097656 265.199219 194.574219 266.625 193.972656 267 C 193.148438 267.523438 193.523438 267.75 195.320312 267.75 C 197.867188 267.75 200.714844 270 203.261719 273.976562 C 204.007812 275.175781 205.730469 276.601562 207.15625 277.199219 C 209.550781 278.175781 209.851562 278.175781 211.949219 276.601562 C 213.597656 275.398438 215.019531 275.023438 217.042969 275.175781 C 225.355469 275.925781 233.816406 274.425781 236.8125 271.726562 C 238.761719 270 240.40625 266.773438 240.40625 264.75 C 240.40625 262.5 241.90625 262.273438 245.800781 263.773438 C 250.367188 265.574219 254.113281 268.949219 253.664062 270.824219 C 253.363281 272.023438 253.664062 272.25 256.210938 272.25 C 260.105469 272.25 260.105469 270.375 256.285156 266.925781 C 247.222656 258.75 241.230469 256.351562 225.28125 254.550781 C 215.691406 253.425781 214.34375 253.050781 214.417969 251.925781 C 214.496094 251.175781 214.792969 250.800781 215.167969 251.023438 C 215.46875 251.175781 216.21875 251.023438 216.742188 250.574219 C 217.265625 250.125 220.710938 249.523438 224.378906 249.300781 C 236.4375 248.398438 244.828125 251.476562 253.4375 259.875 C 256.058594 262.425781 258.683594 264.75 259.207031 264.898438 C 260.554688 265.351562 261.453125 272.25 260.105469 272.25 C 259.582031 272.25 259.132812 272.625 259.132812 273.074219 C 259.132812 273.601562 258.683594 274.351562 258.15625 274.800781 C 256.511719 276.148438 253.964844 283.875 254.710938 285.074219 C 255.238281 285.898438 255.386719 285.824219 255.460938 284.625 C 255.535156 283.425781 255.609375 283.5 256.058594 285 C 256.433594 286.050781 257.183594 288 257.933594 289.273438 C 258.90625 291.226562 258.980469 292.351562 258.382812 294.898438 C 258.007812 296.699219 257.632812 299.699219 257.632812 301.574219 C 257.632812 303.976562 257.109375 305.851562 255.761719 307.800781 C 254.710938 309.300781 253.964844 310.800781 253.964844 311.101562 C 254.261719 313.125 253.738281 315.824219 252.765625 316.726562 C 252.167969 317.324219 251.867188 318 252.089844 318.148438 C 252.464844 318.601562 251.117188 321.375 248.796875 324.601562 C 247.449219 326.476562 247.222656 327.300781 247.820312 328.050781 C 248.496094 328.875 248.273438 329.175781 246.921875 329.550781 C 245.5 329.851562 245.125 330.449219 245.125 332.023438 C 245.125 337.949219 244.902344 339 243.476562 339 C 242.28125 339 241.757812 340.050781 240.707031 344.773438 C 239.660156 349.574219 239.582031 351.300781 240.257812 354.675781 C 240.707031 356.851562 240.933594 359.023438 240.707031 359.324219 C 240.183594 360.226562 247.148438 360.148438 252.765625 359.25 C 264.222656 357.375 284.820312 352.875 286.839844 351.75 L 288.640625 350.773438 L 285.121094 347.851562 C 283.171875 346.125 281.597656 344.175781 281.597656 343.351562 C 281.597656 342.523438 278.601562 339 274.484375 334.875 L 267.292969 327.824219 L 262.726562 327.601562 C 259.878906 327.449219 258.007812 327 257.78125 326.398438 C 257.410156 325.125 262.125 320.851562 263.398438 321.300781 C 264 321.523438 264.375 321.148438 264.449219 320.398438 C 264.449219 319.726562 264.972656 320.398438 265.648438 321.898438 C 266.84375 324.898438 268.117188 325.648438 268.117188 323.398438 C 268.117188 322.726562 268.566406 321.300781 269.09375 320.25 C 272.988281 312.75 275.082031 304.199219 274.859375 296.851562 C 274.410156 282.898438 274.707031 278.476562 276.28125 272.699219 C 278.230469 265.273438 278.304688 261.300781 276.355469 255 C 275.53125 252.300781 274.335938 248.101562 273.660156 245.625 C 272.613281 241.800781 271.636719 240.375 267.742188 236.476562 C 262.726562 231.675781 262.351562 231.449219 249.769531 228.523438 C 246.921875 227.851562 240.707031 227.101562 236.0625 226.875 C 231.34375 226.648438 226.402344 225.976562 224.828125 225.375 C 222.957031 224.625 218.761719 224.175781 211.949219 224.023438 C 202.511719 223.875 201.539062 224.023438 196.59375 225.898438 C 193.75 227.023438 190.753906 228.300781 190.078125 228.75 C 188.058594 229.875 188.058594 229.800781 188.507812 225.300781 C 188.957031 221.25 188.882812 220.949219 186.632812 219 C 185.285156 217.875 184.238281 216.523438 184.238281 216.074219 C 184.238281 215.625 183.863281 215.324219 183.414062 215.398438 C 181.464844 215.851562 182.140625 213.824219 185.285156 209.699219 C 187.53125 206.851562 188.804688 204.375 189.105469 202.273438 C 189.78125 197.699219 188.882812 185.851562 187.832031 185.175781 C 187.160156 184.726562 187.53125 183.449219 189.105469 180.300781 C 191.054688 176.550781 191.726562 175.800781 195.398438 174.226562 C 206.554688 169.425781 212.695312 165.75 209.703125 165.75 C 208.203125 165.75 209.027344 164.625 211.875 162.523438 C 213.519531 161.398438 215.46875 160.5 216.367188 160.5 C 217.191406 160.5 218.3125 159.898438 218.839844 159.074219 C 219.960938 157.574219 225.804688 154.351562 226.402344 154.949219 C 226.628906 155.175781 227.601562 154.875 228.574219 154.199219 C 229.625 153.523438 231.945312 153.148438 234.417969 153.148438 C 236.664062 153.148438 240.632812 152.773438 243.253906 152.324219 C 247.523438 151.5 248.570312 151.574219 253.140625 153 C 255.910156 153.824219 259.503906 155.25 261.078125 156 C 264.375 157.726562 265.945312 157.875 267.21875 156.601562 C 267.894531 155.925781 268.71875 155.925781 270.890625 156.601562 C 276.804688 158.476562 285.644531 159.898438 285.941406 159.074219 C 286.09375 158.625 286.691406 158.25 287.367188 158.25 C 287.964844 158.25 289.3125 157.574219 290.363281 156.75 C 291.410156 155.925781 292.757812 155.25 293.28125 155.25 C 293.882812 155.25 294.332031 154.800781 294.332031 154.199219 C 294.332031 151.726562 305.640625 148.875 309.910156 150.300781 C 313.277344 151.425781 315.675781 151.351562 318.222656 150.148438 C 320.320312 149.175781 321.367188 149.101562 325.710938 149.925781 C 328.40625 150.449219 331.253906 151.050781 332.078125 151.273438 C 332.976562 151.5 333.277344 151.351562 332.902344 150.75 C 331.628906 148.726562 338.441406 151.125 343.609375 154.574219 C 346.679688 156.601562 349.378906 158.25 349.601562 158.25 C 351.925781 158.25 362.484375 163.125 364.65625 165.226562 C 367.050781 167.550781 369.597656 168.601562 375.964844 170.023438 C 378.210938 170.550781 380.457031 172.351562 380.457031 173.773438 C 380.457031 175.050781 379.335938 175.050781 378.210938 173.625 C 376.5625 171.601562 376.488281 173.101562 378.136719 175.726562 C 379.859375 178.574219 380.757812 183.449219 379.632812 184.125 C 379.261719 184.425781 379.109375 184.949219 379.335938 185.324219 C 380.160156 186.523438 380.984375 193.5 380.382812 193.5 C 380.082031 193.5 379.558594 194.699219 379.261719 196.125 C 378.734375 199.125 379.859375 202.425781 382.03125 204.449219 C 382.78125 205.125 383.453125 206.476562 383.453125 207.449219 C 383.453125 208.425781 384.054688 209.324219 384.878906 209.625 C 385.625 209.851562 387.050781 211.5 388.023438 213.226562 C 388.996094 215.023438 391.242188 218.550781 392.890625 221.101562 C 396.1875 225.976562 397.085938 230.023438 399.183594 248.625 C 399.632812 252.300781 400.453125 259.425781 401.128906 264.375 C 401.804688 269.324219 402.550781 280.050781 402.703125 288.148438 C 403 301.574219 403.152344 302.851562 404.273438 302.476562 C 406.222656 301.726562 406.519531 300.824219 405.921875 298.125 C 405.097656 294.601562 405.996094 268.5 406.894531 268.5 C 407.269531 268.5 408.917969 267.226562 410.492188 265.648438 C 412.585938 263.476562 413.261719 262.351562 412.886719 261.148438 C 412.664062 260.25 413.035156 257.851562 413.710938 255.824219 C 414.386719 253.726562 414.910156 250.425781 414.910156 248.476562 C 414.910156 246.449219 415.582031 242.925781 416.40625 240.601562 C 417.230469 238.273438 418.128906 234.523438 418.355469 232.199219 C 418.730469 228.898438 419.328125 227.699219 421.050781 226.125 C 422.921875 224.398438 423.148438 223.875 422.699219 221.476562 C 422.25 219.148438 422.398438 218.851562 423.445312 219.226562 C 425.320312 219.976562 427.714844 218.699219 431.761719 214.875 C 434.15625 212.550781 436.402344 211.125 438.125 210.824219 C 440 210.449219 440.746094 209.925781 440.671875 209.023438 C 440.597656 208.351562 440.824219 207.75 441.195312 207.75 C 441.644531 207.75 442.621094 206.550781 443.445312 205.125 C 444.566406 203.25 445.539062 202.5 446.8125 202.5 C 448.238281 202.5 448.613281 202.125 448.613281 200.625 C 448.613281 199.574219 449.136719 198.523438 449.734375 198.300781 C 450.332031 198 450.859375 197.25 450.859375 196.5 C 450.859375 195.75 451.90625 194.175781 453.105469 192.976562 C 455.050781 191.175781 455.351562 190.351562 455.351562 187.125 C 455.351562 185.101562 454.902344 182.476562 454.304688 181.425781 C 453.777344 180.300781 453.328125 177.523438 453.40625 175.125 C 453.480469 172.726562 453.105469 169.949219 452.582031 168.898438 C 452.054688 167.925781 451.832031 166.800781 452.054688 166.425781 C 452.28125 166.050781 451.90625 165.976562 451.234375 166.273438 C 450.257812 166.574219 450.035156 166.351562 450.183594 165.375 C 450.410156 164.550781 451.605469 163.648438 453.480469 163.125 C 456.027344 162.449219 456.25 162.226562 455.128906 161.550781 C 454.304688 161.023438 453.628906 159.375 453.253906 156.523438 C 452.957031 154.125 452.507812 152.324219 452.207031 152.398438 C 450.785156 152.925781 447.113281 144.449219 447.113281 140.625 C 447.113281 139.351562 446.589844 137.699219 445.988281 136.949219 C 445.390625 136.125 444.867188 135 444.867188 134.398438 C 444.867188 133.800781 444.191406 132.375 443.292969 131.175781 C 442.394531 129.824219 441.871094 128.324219 442.09375 127.425781 C 442.320312 126.523438 442.09375 125.773438 441.421875 125.476562 C 439.699219 124.800781 440.222656 123.375 442.621094 122.476562 C 445.015625 121.574219 445.691406 120 443.667969 120 C 441.945312 120 438.125 117.074219 438.125 115.800781 C 438.125 115.199219 437.828125 114.75 437.453125 114.75 C 436.179688 114.75 434.605469 110.625 435.207031 108.898438 C 435.578125 108 435.503906 107.101562 435.054688 106.875 C 434.679688 106.574219 434.15625 106.949219 433.933594 107.550781 C 433.707031 108.226562 433.109375 108.75 432.734375 108.75 C 432.210938 108.75 432.285156 108.375 432.808594 107.773438 C 433.40625 107.023438 433.332031 106.5 432.734375 105.898438 C 432.210938 105.375 432.136719 105 432.433594 105 C 432.808594 105 432.660156 104.476562 432.136719 103.875 C 431.386719 102.976562 431.460938 102.523438 432.433594 101.550781 C 434.605469 99.449219 433.855469 98.773438 427.640625 96.976562 C 426.742188 96.675781 426.742188 96.449219 427.941406 95.625 C 429.363281 94.574219 429.140625 92.25 427.640625 92.25 C 427.191406 92.25 426.519531 91.425781 426.144531 90.375 C 425.09375 87.675781 423.671875 87.976562 424.269531 90.75 C 424.871094 93.523438 423.972656 93.601562 421.351562 90.976562 C 419.925781 89.550781 419.402344 88.351562 419.628906 87.226562 C 419.851562 86.101562 419.328125 84.824219 418.203125 83.550781 C 417.230469 82.5 416.40625 81.375 416.40625 80.925781 C 416.40625 80.550781 415.957031 80.25 415.359375 80.25 C 414.160156 80.25 411.164062 76.800781 411.164062 75.375 C 411.164062 74.851562 411.914062 74.175781 412.886719 73.949219 L 414.535156 73.425781 L 412.886719 72.75 C 411.914062 72.375 411.164062 71.550781 411.164062 70.875 C 411.164062 69.601562 409.292969 69.375 408.542969 70.574219 C 408.242188 71.023438 406.519531 71.25 404.796875 71.175781 C 402.101562 71.023438 401.203125 71.324219 399.480469 72.976562 C 397.609375 74.925781 394.6875 75.75 394.6875 74.398438 C 394.6875 74.023438 394.015625 72.898438 393.117188 71.925781 C 392.214844 70.875 391.691406 69.375 391.84375 68.175781 C 392.066406 66.148438 390.496094 63.449219 389.445312 64.125 C 389.144531 64.273438 388.472656 63.675781 387.949219 62.625 C 386.972656 60.824219 384.878906 59.699219 380.683594 58.875 C 379.183594 58.574219 378.210938 57.898438 378.210938 57.226562 C 378.210938 56.476562 377.539062 56.175781 376.113281 56.324219 C 373.269531 56.625 370.347656 54 371.097656 51.75 C 371.546875 50.324219 371.394531 50.175781 369.824219 50.625 C 368.925781 50.925781 368.027344 51.449219 367.875 51.75 C 367.800781 52.050781 366.828125 52.125 365.855469 51.898438 C 364.355469 51.675781 363.980469 51.148438 363.980469 49.425781 C 363.980469 48.300781 363.605469 47.101562 363.15625 46.800781 C 362.558594 46.5 362.632812 46.125 363.308594 45.675781 C 364.355469 45 367.050781 46.199219 367.953125 47.699219 C 368.550781 48.824219 371.472656 49.125 371.472656 48.148438 C 371.472656 47.851562 370.574219 47.175781 369.449219 46.648438 C 368.25 46.199219 366.304688 45.074219 365.03125 44.25 C 363.605469 43.351562 360.835938 42.601562 357.992188 42.300781 C 355.371094 42.074219 352.824219 41.398438 352.222656 40.875 C 351.625 40.273438 349.753906 39.375 348.03125 38.925781 C 346.308594 38.398438 344.433594 37.648438 343.910156 37.273438 C 343.238281 36.75 342.636719 36.824219 342.113281 37.351562 C 341.515625 37.949219 340.839844 37.875 339.714844 37.125 C 338.816406 36.523438 337.394531 35.925781 336.570312 35.773438 C 335.671875 35.699219 334.398438 34.949219 333.648438 34.199219 C 332.75 33.375 331.628906 33 330.429688 33.226562 C 329.382812 33.449219 328.03125 33.449219 327.507812 33.226562 C 326.085938 32.625 327.132812 31.5 328.632812 32.023438 C 329.832031 32.398438 329.832031 32.398438 328.707031 31.125 C 327.734375 30.148438 327.132812 30 325.9375 30.675781 C 323.390625 32.023438 321.292969 31.648438 320.542969 29.699219 C 319.269531 26.175781 308.859375 26.476562 302.269531 30.148438 C 299.796875 31.5 296.953125 31.574219 294.628906 30.449219 C 293.28125 29.699219 291.484375 29.476562 289.6875 29.699219 C 287.367188 30.074219 286.765625 29.925781 286.390625 28.800781 C 285.121094 24.523438 284.070312 24.074219 281.449219 26.699219 Z M 286.390625 157.125 C 285.644531 157.726562 283.996094 158.175781 282.722656 158.175781 L 280.476562 158.101562 L 282.722656 157.125 C 283.996094 156.523438 285.644531 156.074219 286.390625 156 C 287.890625 156 287.890625 156 286.390625 157.125 Z M 128.742188 214.199219 C 128.964844 215.398438 128.816406 215.476562 127.769531 214.574219 C 126.34375 213.375 126.195312 212.023438 127.542969 212.398438 C 127.992188 212.625 128.59375 213.375 128.742188 214.199219 Z M 234.042969 261.75 C 234.265625 262.125 234.117188 262.5 233.742188 262.5 C 233.292969 262.5 232.917969 262.125 232.917969 261.75 C 232.917969 261.300781 233.066406 261 233.21875 261 C 233.441406 261 233.816406 261.300781 234.042969 261.75 Z M 217.265625 264.300781 C 217.640625 264.074219 217.941406 264.523438 217.941406 265.351562 C 217.941406 267.074219 222.507812 273.074219 224.457031 273.898438 C 227 274.949219 219.0625 273.601562 215.917969 272.476562 C 211.722656 270.976562 211.050781 268.5 213.96875 265.425781 C 215.09375 264.226562 216.140625 263.550781 216.292969 264 C 216.441406 264.449219 216.890625 264.601562 217.265625 264.300781 Z M 190.078125 511.875 C 189.40625 512.476562 184.988281 511.199219 184.988281 510.300781 C 184.988281 509.773438 186.035156 509.25 187.457031 509.101562 C 189.332031 508.949219 189.929688 509.175781 190.078125 510.226562 C 190.230469 510.976562 190.230469 511.726562 190.078125 511.875 Z M 190.078125 511.875 "/>
<path style=" stroke:none;fill-rule:nonzero;fill:rgb(0%,0%,0%);fill-opacity:1;" d="M 196.96875 49.425781 C 196.445312 50.398438 196.445312 51.074219 196.96875 51.375 C 197.941406 51.976562 199.214844 51.148438 199.214844 49.875 C 199.214844 48.148438 197.867188 47.851562 196.96875 49.425781 Z M 196.96875 49.425781 "/>
<path style=" stroke:none;fill-rule:nonzero;fill:rgb(0%,0%,0%);fill-opacity:1;" d="M 389.519531 61.949219 C 388.621094 63 388.773438 63.074219 390.269531 62.851562 C 391.167969 62.773438 392.066406 62.175781 392.292969 61.648438 C 392.667969 60.375 390.792969 60.601562 389.519531 61.949219 Z M 389.519531 61.949219 "/>
<path style=" stroke:none;fill-rule:nonzero;fill:rgb(0%,0%,0%);fill-opacity:1;" d="M 437.378906 101.25 C 437.378906 101.625 437.75 102 438.125 102 C 438.574219 102 438.875 101.625 438.875 101.25 C 438.875 100.800781 438.574219 100.5 438.125 100.5 C 437.75 100.5 437.378906 100.800781 437.378906 101.25 Z M 437.378906 101.25 "/>
<path style=" stroke:none;fill-rule:nonzero;fill:rgb(0%,0%,0%);fill-opacity:1;" d="M 107.097656 151.5 C 107.097656 151.875 107.472656 152.25 107.847656 152.25 C 108.296875 152.25 108.59375 151.875 108.59375 151.5 C 108.59375 151.050781 108.296875 150.75 107.847656 150.75 C 107.472656 150.75 107.097656 151.050781 107.097656 151.5 Z M 107.097656 151.5 "/>
<path style=" stroke:none;fill-rule:nonzero;fill:rgb(0%,0%,0%);fill-opacity:1;" d="M 353.121094 226.574219 C 350.652344 226.949219 347.878906 227.550781 346.90625 228 C 344.957031 228.824219 336.644531 228.898438 334.546875 228.148438 C 333.800781 227.851562 327.433594 228.074219 320.320312 228.601562 C 305.191406 229.800781 302.867188 230.699219 299.050781 236.625 C 296.203125 240.898438 295.980469 242.851562 298 245.023438 C 299.347656 246.449219 300.097656 246.523438 305.714844 246.300781 C 336.347656 244.726562 353.121094 243.375 357.242188 242.25 C 358.664062 241.800781 361.136719 241.351562 362.632812 241.273438 C 364.207031 241.125 365.703125 240.824219 365.929688 240.523438 C 366.230469 240.300781 367.351562 240.300781 368.550781 240.523438 C 369.75 240.75 371.171875 240.523438 371.695312 240.074219 C 372.296875 239.625 372.96875 239.550781 373.34375 239.851562 C 373.644531 240.148438 373.644531 239.625 373.417969 238.648438 C 372.894531 237.074219 373.042969 237 376.5625 237 C 378.886719 237 381.433594 237.601562 383.679688 238.800781 C 388.023438 240.976562 388.847656 240.074219 385.925781 236.398438 C 383.378906 233.175781 377.011719 229.726562 372.21875 229.125 C 370.347656 228.898438 367.800781 228.226562 366.527344 227.625 C 363.15625 226.199219 358.289062 225.75 353.121094 226.574219 Z M 370.945312 239.023438 C 370.421875 239.175781 369.523438 239.175781 369.074219 239.023438 C 368.550781 238.800781 368.925781 238.648438 369.972656 238.648438 C 371.023438 238.648438 371.394531 238.800781 370.945312 239.023438 Z M 370.945312 239.023438 "/>
<path style=" stroke:none;fill-rule:nonzero;fill:rgb(0%,0%,0%);fill-opacity:1;" d="M 342.113281 248.023438 C 342.636719 248.25 343.3125 248.175781 343.535156 247.949219 C 343.835938 247.726562 343.386719 247.5 342.5625 247.574219 C 341.738281 247.574219 341.515625 247.800781 342.113281 248.023438 Z M 342.113281 248.023438 "/>
<path style=" stroke:none;fill-rule:nonzero;fill:rgb(0%,0%,0%);fill-opacity:1;" d="M 333.875 248.773438 C 334.398438 249 335.074219 248.925781 335.296875 248.699219 C 335.597656 248.476562 335.148438 248.25 334.324219 248.324219 C 333.5 248.324219 333.277344 248.550781 333.875 248.773438 Z M 333.875 248.773438 "/>
<path style=" stroke:none;fill-rule:nonzero;fill:rgb(0%,0%,0%);fill-opacity:1;" d="M 349.226562 248.773438 C 349.902344 248.925781 350.949219 248.925781 351.476562 248.773438 C 351.925781 248.550781 351.398438 248.398438 350.125 248.398438 C 348.929688 248.398438 348.480469 248.550781 349.226562 248.773438 Z M 349.226562 248.773438 "/>
<path style=" stroke:none;fill-rule:nonzero;fill:rgb(0%,0%,0%);fill-opacity:1;" d="M 329.382812 250.273438 C 329.90625 250.5 330.578125 250.425781 330.804688 250.199219 C 331.105469 249.976562 330.65625 249.75 329.832031 249.824219 C 329.007812 249.824219 328.78125 250.050781 329.382812 250.273438 Z M 329.382812 250.273438 "/>
<path style=" stroke:none;fill-rule:nonzero;fill:rgb(0%,0%,0%);fill-opacity:1;" d="M 355.742188 250.5 C 356.34375 250.875 357.390625 251.175781 357.992188 251.175781 C 358.738281 251.175781 358.589844 250.949219 357.617188 250.5 C 355.59375 249.601562 354.394531 249.601562 355.742188 250.5 Z M 355.742188 250.5 "/>
<path style=" stroke:none;fill-rule:nonzero;fill:rgb(0%,0%,0%);fill-opacity:1;" d="M 323.015625 252.601562 C 321.292969 253.726562 319.792969 254.851562 319.792969 255.148438 C 319.792969 255.675781 326.460938 252.300781 327.660156 251.175781 C 329.082031 249.75 326.085938 250.726562 323.015625 252.601562 Z M 323.015625 252.601562 "/>
<path style=" stroke:none;fill-rule:nonzero;fill:rgb(0%,0%,0%);fill-opacity:1;" d="M 359.488281 251.625 C 359.488281 251.773438 360.910156 252.675781 362.632812 253.5 C 364.429688 254.324219 365.328125 254.550781 364.730469 254.023438 C 363.457031 252.898438 359.488281 251.101562 359.488281 251.625 Z M 359.488281 251.625 "/>
<path style=" stroke:none;fill-rule:nonzero;fill:rgb(0%,0%,0%);fill-opacity:1;" d="M 329.382812 255.601562 C 328.183594 255.75 327.285156 256.351562 327.285156 256.949219 C 327.285156 257.550781 326.535156 258 325.335938 258 C 323.914062 258 321.890625 259.574219 317.699219 263.773438 C 312.082031 269.476562 311.554688 270.898438 315.75 269.175781 C 316.949219 268.648438 318.523438 268.351562 319.269531 268.425781 C 320.019531 268.5 320.542969 268.125 320.542969 267.449219 C 320.542969 266.773438 320.84375 266.25 321.21875 266.25 C 321.59375 266.25 322.417969 265.800781 322.941406 265.273438 C 324.289062 264 328.03125 262.425781 328.707031 262.875 C 329.082031 263.023438 329.53125 264.523438 329.753906 266.175781 C 329.980469 267.824219 330.878906 270.226562 331.777344 271.5 L 333.351562 273.75 L 331.105469 273.75 C 328.332031 273.75 322.714844 271.726562 321.59375 270.226562 C 320.84375 269.398438 320.617188 269.398438 320.246094 270.449219 C 320.019531 271.125 319.34375 271.5 318.746094 271.273438 C 318.148438 271.050781 316.722656 271.125 315.527344 271.5 L 313.429688 272.101562 L 316.050781 272.25 C 317.472656 272.324219 319.195312 272.476562 319.792969 272.625 C 322.867188 273.375 329.382812 274.648438 331.027344 274.726562 C 332.078125 274.800781 333.351562 275.175781 333.875 275.550781 C 334.398438 275.851562 335.074219 275.925781 335.371094 275.625 C 335.597656 275.398438 335.449219 274.949219 335 274.648438 C 334.472656 274.351562 336.421875 274.199219 339.191406 274.351562 C 342.113281 274.5 344.957031 274.273438 345.859375 273.824219 C 348.480469 272.398438 351.476562 266.550781 350.949219 264 C 350.726562 262.726562 350.652344 261.75 350.875 261.75 C 351.476562 261.75 359.113281 266.398438 360.386719 267.523438 C 361.808594 268.800781 370.496094 269.398438 371.171875 268.351562 C 372.296875 266.550781 363.980469 261.300781 355.445312 258.449219 C 349.976562 256.574219 334.472656 254.851562 329.382812 255.601562 Z M 343.761719 262.5 C 343.761719 262.875 343.460938 263.25 343.011719 263.25 C 342.636719 263.25 342.261719 262.875 342.261719 262.5 C 342.261719 262.050781 342.636719 261.75 343.011719 261.75 C 343.460938 261.75 343.761719 262.050781 343.761719 262.5 Z M 343.761719 262.5 "/>
<path style=" stroke:none;fill-rule:nonzero;fill:rgb(0%,0%,0%);fill-opacity:1;" d="M 422.023438 271.5 C 419.476562 272.476562 418.28125 274.273438 419.402344 275.625 C 420.003906 276.300781 420.675781 276.449219 421.5 276 C 422.25 275.625 423.746094 275.175781 424.871094 274.875 C 426.070312 274.648438 426.890625 274.050781 426.742188 273.601562 C 426.21875 272.023438 423.597656 270.898438 422.023438 271.5 Z M 422.023438 271.5 "/>
<path style=" stroke:none;fill-rule:nonzero;fill:rgb(0%,0%,0%);fill-opacity:1;" d="M 255.011719 302.25 C 255.238281 302.625 255.609375 303 255.835938 303 C 255.984375 303 256.136719 302.625 256.136719 302.25 C 256.136719 301.800781 255.761719 301.5 255.3125 301.5 C 254.9375 301.5 254.789062 301.800781 255.011719 302.25 Z M 255.011719 302.25 "/>
<path style=" stroke:none;fill-rule:nonzero;fill:rgb(0%,0%,0%);fill-opacity:1;" d="M 305.566406 337.726562 C 300.921875 340.050781 300.773438 341.398438 305.339844 340.050781 C 309.460938 338.773438 310.734375 337.875 309.609375 336.75 C 309.085938 336.226562 307.738281 336.601562 305.566406 337.726562 Z M 305.566406 337.726562 "/>
<path style=" stroke:none;fill-rule:nonzero;fill:rgb(0%,0%,0%);fill-opacity:1;" d="M 252.988281 376.125 C 251.492188 376.5 249.992188 377.101562 249.695312 377.398438 C 249.394531 377.773438 247.148438 378 244.75 378 C 240.183594 378 237.710938 378.824219 236.140625 380.925781 C 235.015625 382.425781 235.164062 382.574219 241.15625 385.726562 C 248.195312 389.550781 254.636719 390.300781 254.636719 387.375 C 254.636719 385.5 258.308594 385.199219 270.890625 386.175781 C 280.25 386.851562 285.269531 386.851562 292.609375 386.175781 C 297.851562 385.726562 305.039062 385.5 308.5625 385.648438 C 312.082031 385.875 313.953125 385.800781 312.679688 385.5 C 311.480469 385.199219 307.738281 384.898438 304.441406 384.824219 C 301.144531 384.75 295.230469 384.375 291.335938 383.925781 C 287.441406 383.476562 281.898438 382.875 278.976562 382.574219 C 276.132812 382.273438 272.613281 381.449219 271.265625 380.699219 C 268.492188 379.273438 258.683594 377.175781 257.183594 377.773438 C 256.660156 377.925781 256.136719 377.476562 255.984375 376.726562 C 255.761719 375.449219 255.460938 375.375 252.988281 376.125 Z M 252.988281 376.125 "/>
<path style=" stroke:none;fill-rule:nonzero;fill:rgb(0%,0%,0%);fill-opacity:1;" d="M 327.132812 385.5 C 326.460938 385.949219 323.839844 386.324219 321.292969 386.398438 C 318.070312 386.476562 317.097656 386.699219 317.996094 387.226562 C 319.945312 388.351562 328.632812 387.523438 330.054688 386.023438 C 331.253906 384.824219 331.253906 384.75 329.90625 384.75 C 329.082031 384.75 327.808594 385.125 327.132812 385.5 Z M 327.132812 385.5 "/>
<path style=" stroke:none;fill-rule:nonzero;fill:rgb(0%,0%,0%);fill-opacity:1;" d="M 256.058594 403.050781 C 257.035156 404.101562 259.582031 405.675781 261.675781 406.648438 C 266.246094 408.675781 268.269531 411.523438 266.097656 413.023438 C 265.046875 413.851562 267.445312 414 278.902344 414 L 292.984375 414 L 292.535156 412.273438 C 292.085938 410.398438 294.628906 407.324219 297.703125 406.125 C 299.648438 405.300781 291.335938 404.101562 287.515625 404.699219 C 283.847656 405.226562 266.46875 403.726562 261.152344 402.375 C 254.789062 400.726562 254.039062 400.875 256.058594 403.050781 Z M 256.058594 403.050781 "/>
<path style=" stroke:none;fill-rule:nonzero;fill:rgb(0%,0%,0%);fill-opacity:1;" d="M 368.175781 530.699219 C 367.953125 531.375 367.726562 532.425781 367.726562 533.101562 C 367.800781 534.226562 367.953125 534.148438 368.851562 532.949219 C 370.125 531.300781 370.347656 529.5 369.300781 529.5 C 368.925781 529.5 368.402344 530.023438 368.175781 530.699219 Z M 368.175781 530.699219 "/>
<path style=" stroke:none;fill-rule:nonzero;fill:rgb(0%,0%,0%);fill-opacity:1;" d="M 440.671875 539.550781 C 440.222656 540 439.847656 542.023438 439.699219 544.125 C 439.625 546.148438 439.25 547.949219 438.800781 548.101562 C 437.378906 548.625 438.277344 550.125 442.394531 553.949219 L 446.664062 558 L 464.488281 558 C 480.664062 558 484.636719 557.550781 481.113281 556.199219 C 480.441406 555.976562 478.867188 555.75 477.519531 555.75 C 475.648438 555.75 474.824219 555.226562 473.851562 553.5 C 472.875 551.925781 471.453125 550.949219 468.980469 550.199219 C 467.035156 549.675781 461.566406 547.351562 456.851562 545.101562 C 446.214844 540 441.644531 538.5 440.671875 539.550781 Z M 440.671875 539.550781 "/>
<path style=" stroke:none;fill-rule:nonzero;fill:rgb(0%,0%,0%);fill-opacity:1;" d="M 435.65625 539.773438 C 435.355469 540 435.128906 541.273438 435.207031 542.550781 C 435.207031 543.824219 435.429688 544.425781 435.65625 543.898438 C 435.804688 543.449219 436.628906 543 437.453125 543 C 439.175781 543 439.398438 540.375 437.675781 539.699219 C 436.253906 539.175781 436.253906 539.175781 435.65625 539.773438 Z M 437.378906 540.75 C 437.378906 541.125 437.078125 541.5 436.628906 541.5 C 436.253906 541.5 435.878906 541.125 435.878906 540.75 C 435.878906 540.300781 436.253906 540 436.628906 540 C 437.078125 540 437.378906 540.300781 437.378906 540.75 Z M 437.378906 540.75 "/>
</g>
</svg>
